<svg id="Layer_1" data-name="Layer 1" xmlns="http://www.w3.org/2000/svg" viewBox="0 0 24 24"><title>adsense-square</title><rect width="24" height="24" style="fill:#f2f1eb"/><path d="M14,8.975a2.435,2.435,0,0,0-.877-3.33l-.031-.018a2.5,2.5,0,0,0-3.389.9c-.03.053-.058.106-.085.161L7.3,10.645a2.7,2.7,0,0,0-.142.243l-2.4,4.149,4.3,2.409,2.392-4.114a2.583,2.583,0,0,0,.142-.244L13.9,9.127c.034-.049.067-.1.1-.152" style="fill:#fbbc04"/><path d="M9.072,17.433a2.484,2.484,0,1,1-.935-3.371,2.5,2.5,0,0,1,.935,3.371" style="fill:#34a853"/><path d="M18.343,9.759a2.456,2.456,0,0,0-3.351.895l-2.453,4.238a2.444,2.444,0,0,0,.892,3.339h.006a2.456,2.456,0,0,0,3.351-.9L19.241,13.1a2.443,2.443,0,0,0-.891-3.338h0" style="fill:#4285f4"/></svg>